<svg xmlns="http://www.w3.org/2000/svg" xmlns:xlink="http://www.w3.org/1999/xlink" width="740" height="494.2"><rect width="740" height="494.2" rx="5" ry="5" class="a"/><svg y="0%" x="0%"><circle cx="20" cy="20" r="6" fill="#ff5f58"/><circle cx="40" cy="20" r="6" fill="#ffbd2e"/><circle cx="60" cy="20" r="6" fill="#18c132"/></svg><svg height="434.2" viewBox="0 0 70 43.42" width="700" x="15" xmlns="http://www.w3.org/2000/svg" xmlns:xlink="http://www.w3.org/1999/xlink" y="50"><style>@keyframes m{0%{transform:translateX(0)}.6%{transform:translateX(-70px)}2.8%{transform:translateX(-140px)}3.1%{transform:translateX(-210px)}10.2%{transform:translateX(-420px)}10.9%{transform:translateX(-490px)}13.8%{transform:translateX(-560px)}15.7%{transform:translateX(-700px)}19.6%{transform:translateX(-770px)}20.6%{transform:translateX(-840px)}21.8%{transform:translateX(-910px)}to{transform:translateX(-980px)}}.a{fill:#282d35}.f,.g,.h,.i,.j{fill:#b9c0cb;white-space:pre}.g,.h,.i,.j{fill:#87afaf}.h,.i,.j{fill:#66c2cd}.i,.j{fill:#dbab79}.j{fill:#a8cc8c}</style><g font-family="Monaco,Consolas,Menlo,'Bitstream Vera Sans Mono','Powerline Symbols',monospace" font-size="1.67"><defs><symbol id="1"><text y="1.67" class="f">Cities</text></symbol><symbol id="2"><text x="13.026" y="1.67" class="g">CurrentPage#</text><text x="25.05" y="1.67" class="h">resize_to</text><text x="34.068" y="1.67" class="g">(:desktop)</text><text x="46.092" y="1.67" class="i">906</text><text x="50.1" y="1.67" class="i">ms</text></symbol><symbol id="3"><text x="18.036" y="1.67" class="g">Cities#</text><text x="25.05" y="1.67" class="h">given_there_is_a_city</text><text x="46.092" y="1.67" class="g">(&quot;NYC&quot;)</text><text x="55.11" y="1.67" class="j">13</text><text x="58.116" y="1.67" class="j">ms</text></symbol><symbol id="4"><text x="18.036" y="1.67" class="g">Cities#</text><text x="25.05" y="1.67" class="h">add</text><text x="28.056" y="1.67" class="g">({:name=&gt;&quot;Minneapolis&quot;})</text><text x="54.108" y="1.67" class="i">362</text><text x="58.116" y="1.67" class="i">ms</text></symbol><symbol id="5"><text x="22.044" y="1.67" class="g">Form#</text><text x="27.054" y="1.67" class="h">save</text><text x="31.062" y="1.67" class="g">()</text><text x="35.07" y="1.67" class="j">93</text><text x="38.076" y="1.67" class="j">ms</text></symbol><symbol id="6"><text x="24.048" y="1.67" class="g">Form#</text><text x="29.058" y="1.67" class="h">submit_button</text><text x="42.084" y="1.67" class="g">()</text><text x="46.092" y="1.67" class="j">18</text><text x="49.098" y="1.67" class="j">ms</text></symbol><symbol id="7"><text x="18.036" y="1.67" class="g">Cities#</text><text x="25.05" y="1.67" class="h">have_city</text><text x="34.068" y="1.67" class="g">(&quot;Minneapolis&quot;)</text><text x="51.102" y="1.67" class="j">61</text><text x="54.108" y="1.67" class="j">ms</text></symbol><symbol id="8"><text x="2.004" y="1.67" class="j">valid</text><text x="8.016" y="1.67" class="j">inputs</text></symbol><symbol id="9"><text x="13.026" y="1.67" class="g">CurrentPage#</text><text x="25.05" y="1.67" class="h">resize_to</text><text x="34.068" y="1.67" class="g">(:desktop)</text><text x="46.092" y="1.67" class="i">145</text><text x="50.1" y="1.67" class="i">ms</text></symbol><symbol id="10"><text x="18.036" y="1.67" class="g">Cities#</text><text x="25.05" y="1.67" class="h">given_there_is_a_city</text><text x="46.092" y="1.67" class="g">(&quot;NYC&quot;)</text><text x="55.11" y="1.67" class="j">2</text><text x="57.114" y="1.67" class="j">ms</text></symbol><symbol id="11"><text x="18.036" y="1.67" class="g">Cities#</text><text x="25.05" y="1.67" class="h">add</text><text x="28.056" y="1.67" class="g">({:name=&gt;&quot;&quot;})</text><text x="43.086" y="1.67" class="i">305</text><text x="47.094" y="1.67" class="i">ms</text></symbol><symbol id="12"><text x="22.044" y="1.67" class="g">Form#</text><text x="27.054" y="1.67" class="h">save</text><text x="31.062" y="1.67" class="g">()</text><text x="35.07" y="1.67" class="j">91</text><text x="38.076" y="1.67" class="j">ms</text></symbol><symbol id="13"><text x="24.048" y="1.67" class="g">Form#</text><text x="29.058" y="1.67" class="h">submit_button</text><text x="42.084" y="1.67" class="g">()</text><text x="46.092" y="1.67" class="j">22</text><text x="49.098" y="1.67" class="j">ms</text></symbol><symbol id="14"><text x="22.044" y="1.67" class="g">Form#</text><text x="27.054" y="1.67" class="h">have_error</text><text x="37.074" y="1.67" class="g">(&quot;Name</text><text x="44.088" y="1.67" class="g">can&apos;t</text><text x="50.1" y="1.67" class="g">be</text><text x="53.106" y="1.67" class="g">blank&quot;)</text><text x="62.124" y="1.67" class="j">32</text><text x="65.13" y="1.67" class="j">ms</text></symbol><symbol id="15"><text x="2.004" y="1.67" class="j">invalid</text><text x="10.02" y="1.67" class="j">inputs</text></symbol><symbol id="16"><text y="1.67" class="f">Finished</text><text x="9.018" y="1.67" class="f">in</text><text x="12.024" y="1.67" class="f">1.9</text><text x="16.032" y="1.67" class="f">seconds</text></symbol><symbol id="17"><text y="1.67" class="j">2</text><text x="2.004" y="1.67" class="j">examples,</text><text x="12.024" y="1.67" class="j">0</text><text x="14.028" y="1.67" class="j">failures</text></symbol><symbol id="a"><path fill="transparent" d="M0 0h70v21H0z"/></symbol><symbol id="b"><path fill="#6f7683" d="M0 0h1.102v2.171H0z"/></symbol></defs><path class="a" d="M0 0h70v43.42H0z"/><g style="animation-duration:8.954926s;animation-iteration-count:infinite;animation-name:m;animation-timing-function:steps(1,end)"><svg width="1050"><svg><use xlink:href="#a"/><use xlink:href="#b" x="-.004"/></svg><svg x="70"><use xlink:href="#a"/><use xlink:href="#b" x="-.004" y="2.146"/><use xlink:href="#1"/></svg><svg x="140"><use xlink:href="#a"/><use xlink:href="#b" x="-.004" y="4.317"/><use xlink:href="#1"/><use xlink:href="#2" y="2.171"/></svg><svg x="210"><use xlink:href="#a"/><use xlink:href="#b" x="-.004" y="6.488"/><use xlink:href="#1"/><use xlink:href="#2" y="2.171"/><use xlink:href="#3" y="4.342"/></svg><svg x="280"><use xlink:href="#a"/><use xlink:href="#b" x="-.004" y="8.659"/><use xlink:href="#1"/><use xlink:href="#2" y="2.171"/><use xlink:href="#3" y="4.342"/><use xlink:href="#4" y="6.513"/></svg><svg x="350"><use xlink:href="#a"/><use xlink:href="#b" x="-.004" y="10.83"/><use xlink:href="#1"/><use xlink:href="#2" y="2.171"/><use xlink:href="#3" y="4.342"/><use xlink:href="#4" y="6.513"/><use xlink:href="#5" y="8.684"/></svg><svg x="420"><use xlink:href="#a"/><use xlink:href="#b" x="-.004" y="13.001"/><use xlink:href="#1"/><use xlink:href="#2" y="2.171"/><use xlink:href="#3" y="4.342"/><use xlink:href="#4" y="6.513"/><use xlink:href="#5" y="8.684"/><use xlink:href="#6" y="10.855"/></svg><svg x="490"><use xlink:href="#a"/><use xlink:href="#b" x="-.004" y="15.172"/><use xlink:href="#1"/><use xlink:href="#2" y="2.171"/><use xlink:href="#3" y="4.342"/><use xlink:href="#4" y="6.513"/><use xlink:href="#5" y="8.684"/><use xlink:href="#6" y="10.855"/><use xlink:href="#7" y="13.026"/></svg><svg x="560"><use xlink:href="#a"/><use xlink:href="#b" x="-.004" y="17.343"/><use xlink:href="#1"/><use xlink:href="#2" y="2.171"/><use xlink:href="#3" y="4.342"/><use xlink:href="#4" y="6.513"/><use xlink:href="#5" y="8.684"/><use xlink:href="#6" y="10.855"/><use xlink:href="#7" y="13.026"/><use xlink:href="#8" y="15.197"/></svg><svg x="630"><use xlink:href="#a"/><use xlink:href="#b" x="-.004" y="19.514"/><use xlink:href="#1"/><use xlink:href="#2" y="2.171"/><use xlink:href="#3" y="4.342"/><use xlink:href="#4" y="6.513"/><use xlink:href="#5" y="8.684"/><use xlink:href="#6" y="10.855"/><use xlink:href="#7" y="13.026"/><use xlink:href="#8" y="15.197"/><use xlink:href="#9" y="17.368"/></svg><svg x="700"><use xlink:href="#a"/><use xlink:href="#b" x="-.004" y="21.685"/><use xlink:href="#1"/><use xlink:href="#2" y="2.171"/><use xlink:href="#3" y="4.342"/><use xlink:href="#4" y="6.513"/><use xlink:href="#5" y="8.684"/><use xlink:href="#6" y="10.855"/><use xlink:href="#7" y="13.026"/><use xlink:href="#8" y="15.197"/><use xlink:href="#9" y="17.368"/><use xlink:href="#10" y="19.539"/></svg><svg x="770"><use xlink:href="#a"/><use xlink:href="#b" x="-.004" y="30.369"/><use xlink:href="#1"/><use xlink:href="#2" y="2.171"/><use xlink:href="#3" y="4.342"/><use xlink:href="#4" y="6.513"/><use xlink:href="#5" y="8.684"/><use xlink:href="#6" y="10.855"/><use xlink:href="#7" y="13.026"/><use xlink:href="#8" y="15.197"/><use xlink:href="#9" y="17.368"/><use xlink:href="#10" y="19.539"/><use xlink:href="#11" y="21.71"/><use xlink:href="#12" y="23.881"/><use xlink:href="#13" y="26.052"/><use xlink:href="#14" y="28.223"/></svg><svg x="840"><use xlink:href="#a"/><use xlink:href="#b" x="-.004" y="32.54"/><use xlink:href="#1"/><use xlink:href="#2" y="2.171"/><use xlink:href="#3" y="4.342"/><use xlink:href="#4" y="6.513"/><use xlink:href="#5" y="8.684"/><use xlink:href="#6" y="10.855"/><use xlink:href="#7" y="13.026"/><use xlink:href="#8" y="15.197"/><use xlink:href="#9" y="17.368"/><use xlink:href="#10" y="19.539"/><use xlink:href="#11" y="21.71"/><use xlink:href="#12" y="23.881"/><use xlink:href="#13" y="26.052"/><use xlink:href="#14" y="28.223"/><use xlink:href="#15" y="30.394"/></svg><svg x="910"><use xlink:href="#a"/><use xlink:href="#b" x="-.004" y="39.053"/><use xlink:href="#1"/><use xlink:href="#2" y="2.171"/><use xlink:href="#3" y="4.342"/><use xlink:href="#4" y="6.513"/><use xlink:href="#5" y="8.684"/><use xlink:href="#6" y="10.855"/><use xlink:href="#7" y="13.026"/><use xlink:href="#8" y="15.197"/><use xlink:href="#9" y="17.368"/><use xlink:href="#10" y="19.539"/><use xlink:href="#11" y="21.71"/><use xlink:href="#12" y="23.881"/><use xlink:href="#13" y="26.052"/><use xlink:href="#14" y="28.223"/><use xlink:href="#15" y="30.394"/><use xlink:href="#16" y="34.736"/><use xlink:href="#17" y="36.907"/></svg><svg x="980"><use xlink:href="#a"/><use xlink:href="#b" x="-.004" y="41.224"/><use xlink:href="#1"/><use xlink:href="#2" y="2.171"/><use xlink:href="#3" y="4.342"/><use xlink:href="#4" y="6.513"/><use xlink:href="#5" y="8.684"/><use xlink:href="#6" y="10.855"/><use xlink:href="#7" y="13.026"/><use xlink:href="#8" y="15.197"/><use xlink:href="#9" y="17.368"/><use xlink:href="#10" y="19.539"/><use xlink:href="#11" y="21.71"/><use xlink:href="#12" y="23.881"/><use xlink:href="#13" y="26.052"/><use xlink:href="#14" y="28.223"/><use xlink:href="#15" y="30.394"/><use xlink:href="#16" y="34.736"/><use xlink:href="#17" y="36.907"/></svg></svg></g></g></svg></svg>