<svg xmlns="http://www.w3.org/2000/svg" xmlns:xlink="http://www.w3.org/1999/xlink" width="1040" height="711.3"><rect width="1040" height="711.3" rx="5" ry="5" class="a"/><svg y="0%" x="0%"><circle cx="20" cy="20" r="6" fill="#ff5f58"/><circle cx="40" cy="20" r="6" fill="#ffbd2e"/><circle cx="60" cy="20" r="6" fill="#18c132"/></svg><svg height="651.3" viewBox="0 0 100 65.13" width="1000" x="15" xmlns="http://www.w3.org/2000/svg" xmlns:xlink="http://www.w3.org/1999/xlink" y="50"><style>@keyframes t{0%{transform:translateX(0)}2.54%{transform:translateX(-100px)}3.38%{transform:translateX(-200px)}3.45%{transform:translateX(-300px)}6.14%{transform:translateX(-400px)}6.41%{transform:translateX(-500px)}10.94%{transform:translateX(-700px)}11%{transform:translateX(-800px)}15.31%{transform:translateX(-900px)}16.02%{transform:translateX(-1000px)}16.79%{transform:translateX(-1100px)}17.28%{transform:translateX(-1200px)}18.5%{transform:translateX(-1300px)}18.55%{transform:translateX(-1400px)}18.56%{transform:translateX(-1600px)}20.68%{transform:translateX(-1700px)}21.24%{transform:translateX(-1800px)}22.22%{transform:translateX(-1900px)}22.67%{transform:translateX(-2000px)}24.74%{transform:translateX(-2100px)}24.75%{transform:translateX(-2200px)}24.86%{transform:translateX(-2300px)}to{transform:translateX(-2400px)}}.a{fill:#282d35}.f,.g,.h{fill:#b9c0cb;white-space:pre}.g,.h{fill:#87afaf}.h{fill:#66c2cd}.i,.j,.k,.m,.p,.q{fill:#dbab79;white-space:pre}.j,.k,.m,.p,.q{fill:#a8cc8c}.k,.m,.p,.q{fill:#e88388}.m,.p,.q{fill:#71bef2;font-weight:700}.p,.q{fill:#e88388}.q{fill:#d290e4}</style><g font-family="Monaco,Consolas,Menlo,'Bitstream Vera Sans Mono','Powerline Symbols',monospace" font-size="1.67"><defs><symbol id="1"><text y="1.67" class="f">Cities</text></symbol><symbol id="2"><text x="13.026" y="1.67" class="g">CurrentPage#</text><text x="25.05" y="1.67" class="h">resize_to</text><text x="34.068" y="1.67" class="g">(:desktop)</text><text x="46.092" y="1.67" class="i">920</text><text x="50.1" y="1.67" class="i">ms</text></symbol><symbol id="3"><text x="18.036" y="1.67" class="g">Cities#</text><text x="25.05" y="1.67" class="h">given_there_is_a_city</text><text x="46.092" y="1.67" class="g">(&quot;NYC&quot;)</text><text x="55.11" y="1.67" class="j">13</text><text x="58.116" y="1.67" class="j">ms</text></symbol><symbol id="4"><text x="18.036" y="1.67" class="g">Cities#</text><text x="25.05" y="1.67" class="h">add</text><text x="28.056" y="1.67" class="g">({:name=&gt;&quot;Minneapolis&quot;})</text><text x="54.108" y="1.67" class="i">395</text><text x="58.116" y="1.67" class="i">ms</text></symbol><symbol id="5"><text x="22.044" y="1.67" class="g">Form#</text><text x="27.054" y="1.67" class="h">save</text><text x="31.062" y="1.67" class="g">()</text><text x="35.07" y="1.67" class="i">103</text><text x="39.078" y="1.67" class="i">ms</text></symbol><symbol id="6"><text x="24.048" y="1.67" class="g">Form#</text><text x="29.058" y="1.67" class="h">submit_button</text><text x="42.084" y="1.67" class="g">()</text><text x="46.092" y="1.67" class="j">22</text><text x="49.098" y="1.67" class="j">ms</text></symbol><symbol id="7"><text x="18.036" y="1.67" class="g">Cities#</text><text x="25.05" y="1.67" class="h">have_city</text><text x="34.068" y="1.67" class="g">(&quot;Minneapolis2&quot;)</text><text x="52.104" y="1.67" class="k">2060</text><text x="57.114" y="1.67" class="k">ms</text></symbol><symbol id="8"><text y="1.67" style="white-space:pre" fill="#b9c0cb" font-weight="700">From:</text><text x="6.012" y="1.67" class="f">cities_test_helper.rb:43</text><text x="31.062" y="1.67" class="f">#&lt;Module:0x00007f7f39e89d78&gt;#have_city:</text></symbol><symbol id="9"><text x="4.008" y="1.67" class="m">38</text><text x="6.012" y="1.67" class="f">:</text><text x="12.024" y="1.67" class="f">}</text></symbol><symbol id="10"><text x="4.008" y="1.67" class="m">39</text><text x="6.012" y="1.67" class="f">:</text><text x="10.02" y="1.67" class="j">end</text></symbol><symbol id="11"><text x="4.008" y="1.67" class="m">40</text><text x="6.012" y="1.67" class="f">:</text></symbol><symbol id="12"><text x="4.008" y="1.67" class="m">41</text><text x="6.012" y="1.67" class="f">:</text><text x="8.016" y="1.67" class="m">#</text><text x="10.02" y="1.67" class="m">Assertions:</text><text x="22.044" y="1.67" class="m">Check</text><text x="28.056" y="1.67" class="m">on</text><text x="31.062" y="1.67" class="m">element</text><text x="39.078" y="1.67" class="m">properties,</text><text x="51.102" y="1.67" class="m">used</text><text x="56.112" y="1.67" class="m">with</text><text x="61.122" y="1.67" class="m">`should`</text><text x="70.14" y="1.67" class="m">and</text><text x="74.148" y="1.67" class="m">`should_not`.</text></symbol><symbol id="13"><text x="4.008" y="1.67" class="m">42</text><text x="6.012" y="1.67" class="f">:</text><text x="10.02" y="1.67" class="j">def</text><text x="14.028" y="1.67" class="m">have_city</text><text x="23.046" y="1.67" class="f">(name)</text></symbol><symbol id="14"><text x="1.002" y="1.67" class="f">=&gt;</text><text x="4.008" y="1.67" class="m">43</text><text x="6.012" y="1.67" class="f">:</text><text x="12.024" y="1.67" class="f">have_content(name)</text></symbol><symbol id="15"><text x="4.008" y="1.67" class="m">44</text><text x="6.012" y="1.67" class="f">:</text><text x="10.02" y="1.67" class="j">end</text></symbol><symbol id="16"><text x="4.008" y="1.67" class="m">45</text><text x="6.012" y="1.67" class="f">:</text></symbol><symbol id="17"><text x="4.008" y="1.67" class="m">46</text><text x="6.012" y="1.67" class="f">:</text><text x="8.016" y="1.67" class="m">#</text><text x="10.02" y="1.67" class="m">Background:</text><text x="22.044" y="1.67" class="m">Helpers</text><text x="30.06" y="1.67" class="m">to</text><text x="33.066" y="1.67" class="m">add/modify/delete</text><text x="51.102" y="1.67" class="m">data</text><text x="56.112" y="1.67" class="m">in</text><text x="59.118" y="1.67" class="m">the</text><text x="63.126" y="1.67" class="m">database</text><text x="72.144" y="1.67" class="m">or</text><text x="75.15" y="1.67" class="m">session.</text></symbol><symbol id="18"><text x="4.008" y="1.67" class="m">47</text><text x="6.012" y="1.67" class="f">:</text><text x="10.02" y="1.67" class="j">def</text><text x="14.028" y="1.67" class="m">given_there_is_a_city</text><text x="35.07" y="1.67" class="f">(name)</text></symbol><symbol id="19"><text x="4.008" y="1.67" class="m">48</text><text x="6.012" y="1.67" class="f">:</text><text x="12.024" y="1.67" style="white-space:pre" fill="#71bef2" font-weight="700" text-decoration="underline">City</text><text x="16.032" y="1.67" class="f">.create!(</text><text x="25.05" y="1.67" style="white-space:pre" fill="#d290e4">name</text><text x="29.058" y="1.67" class="f">:</text><text x="31.062" y="1.67" class="f">name)</text></symbol><symbol id="20"><text y="1.67" class="f">RSpec::Expectations::ExpectationNotMetError:</text><text x="45.09" y="1.67" class="f">expected</text><text x="54.108" y="1.67" class="f">to</text><text x="57.114" y="1.67" class="f">find</text><text x="62.124" y="1.67" class="f">text</text><text x="67.134" y="1.67" class="f">&quot;Minneapolis2&quot;</text><text x="82.164" y="1.67" class="f">in</text><text x="85.17" y="1.67" class="f">&quot;Name</text><text x="91.182" y="1.67" class="f">NYC</text><text x="95.19" y="1.67" class="f">Show</text></symbol><symbol id="21"><text y="1.67" class="f">Edit</text><text x="5.01" y="1.67" class="f">Destroy</text><text x="13.026" y="1.67" class="f">Minneapolis</text><text x="25.05" y="1.67" class="f">Show</text><text x="30.06" y="1.67" class="f">Edit</text><text x="35.07" y="1.67" class="f">Destroy&quot;</text></symbol><symbol id="22"><text y="1.67" class="f">[1]</text><text x="4.008" y="1.67" class="f">pry(#&lt;CitiesTestHelper&gt;)&gt;</text><text x="30.06" y="1.67" class="f">name</text></symbol><symbol id="23"><text y="1.67" class="f">=&gt;</text><text x="3.006" y="1.67" class="p">&quot;</text><text x="4.008" y="1.67" class="k">Minneapolis2</text><text x="16.032" y="1.67" class="p">&quot;</text></symbol><symbol id="24"><text y="1.67" class="f">[2]</text><text x="4.008" y="1.67" class="f">pry(#&lt;CitiesTestHelper&gt;)&gt;</text><text x="30.06" y="1.67" class="f">text</text></symbol><symbol id="25"><text y="1.67" class="f">=&gt;</text><text x="3.006" y="1.67" class="p">&quot;</text><text x="4.008" y="1.67" class="k">Name</text><text x="8.016" y="1.67" class="q">\n</text><text x="10.02" y="1.67" class="k">NYC</text><text x="14.028" y="1.67" class="k">Show</text><text x="19.038" y="1.67" class="k">Edit</text><text x="24.048" y="1.67" class="k">Destroy</text><text x="31.062" y="1.67" class="q">\n</text><text x="33.066" y="1.67" class="k">Minneapolis</text><text x="45.09" y="1.67" class="k">Show</text><text x="50.1" y="1.67" class="k">Edit</text><text x="55.11" y="1.67" class="k">Destroy</text><text x="62.124" y="1.67" class="p">&quot;</text></symbol><symbol id="a"><path fill="transparent" d="M0 0h100v30H0z"/></symbol><symbol id="b"><path fill="#6f7683" d="M0 0h1.102v2.171H0z"/></symbol></defs><path class="a" d="M0 0h100v65.13H0z"/><g style="animation-duration:22.831761999999998s;animation-iteration-count:infinite;animation-name:t;animation-timing-function:steps(1,end)"><svg width="2500"><svg><use xlink:href="#a"/><use xlink:href="#b" x="-.004"/></svg><svg x="100"><use xlink:href="#a"/><use xlink:href="#b" x="-.004" y="4.317"/><use xlink:href="#1" y="2.171"/></svg><svg x="200"><use xlink:href="#a"/><use xlink:href="#b" x="-.004" y="6.488"/><use xlink:href="#1" y="2.171"/><use xlink:href="#2" y="4.342"/></svg><svg x="300"><use xlink:href="#a"/><use xlink:href="#b" x="-.004" y="8.659"/><use xlink:href="#1" y="2.171"/><use xlink:href="#2" y="4.342"/><use xlink:href="#3" y="6.513"/></svg><svg x="400"><use xlink:href="#a"/><use xlink:href="#b" x="-.004" y="15.172"/><use xlink:href="#1" y="2.171"/><use xlink:href="#2" y="4.342"/><use xlink:href="#3" y="6.513"/><use xlink:href="#4" y="8.684"/><use xlink:href="#5" y="10.855"/><use xlink:href="#6" y="13.026"/></svg><svg x="500"><use xlink:href="#a"/><use xlink:href="#b" x="-.004" y="17.343"/><use xlink:href="#1" y="2.171"/><use xlink:href="#2" y="4.342"/><use xlink:href="#3" y="6.513"/><use xlink:href="#4" y="8.684"/><use xlink:href="#5" y="10.855"/><use xlink:href="#6" y="13.026"/><use xlink:href="#7" y="15.197"/></svg><svg x="600"><use xlink:href="#a"/><use xlink:href="#b" x="-.004" y="49.908"/><use xlink:href="#1" y="2.171"/><use xlink:href="#2" y="4.342"/><use xlink:href="#3" y="6.513"/><use xlink:href="#4" y="8.684"/><use xlink:href="#5" y="10.855"/><use xlink:href="#6" y="13.026"/><use xlink:href="#7" y="15.197"/><use xlink:href="#8" y="19.539"/><use xlink:href="#9" y="23.881"/><use xlink:href="#10" y="26.052"/><use xlink:href="#11" y="28.223"/><use xlink:href="#12" y="30.394"/><use xlink:href="#13" y="32.565"/><use xlink:href="#14" y="34.736"/><use xlink:href="#15" y="36.907"/><use xlink:href="#16" y="39.078"/><use xlink:href="#17" y="41.249"/><use xlink:href="#18" y="43.42"/><use xlink:href="#19" y="45.591"/></svg><svg x="700"><use xlink:href="#a"/><use xlink:href="#b" x="-.004" y="54.25"/><use xlink:href="#1" y="2.171"/><use xlink:href="#2" y="4.342"/><use xlink:href="#3" y="6.513"/><use xlink:href="#4" y="8.684"/><use xlink:href="#5" y="10.855"/><use xlink:href="#6" y="13.026"/><use xlink:href="#7" y="15.197"/><use xlink:href="#8" y="19.539"/><use xlink:href="#9" y="23.881"/><use xlink:href="#10" y="26.052"/><use xlink:href="#11" y="28.223"/><use xlink:href="#12" y="30.394"/><use xlink:href="#13" y="32.565"/><use xlink:href="#14" y="34.736"/><use xlink:href="#15" y="36.907"/><use xlink:href="#16" y="39.078"/><use xlink:href="#17" y="41.249"/><use xlink:href="#18" y="43.42"/><use xlink:href="#19" y="45.591"/><use xlink:href="#20" y="49.933"/><use xlink:href="#21" y="52.104"/></svg><svg x="800"><use xlink:href="#a"/><use xlink:href="#b" x="29.996" y="54.25"/><use xlink:href="#1" y="2.171"/><use xlink:href="#2" y="4.342"/><use xlink:href="#3" y="6.513"/><use xlink:href="#4" y="8.684"/><use xlink:href="#5" y="10.855"/><use xlink:href="#6" y="13.026"/><use xlink:href="#7" y="15.197"/><use xlink:href="#8" y="19.539"/><use xlink:href="#9" y="23.881"/><use xlink:href="#10" y="26.052"/><use xlink:href="#11" y="28.223"/><use xlink:href="#12" y="30.394"/><use xlink:href="#13" y="32.565"/><use xlink:href="#14" y="34.736"/><use xlink:href="#15" y="36.907"/><use xlink:href="#16" y="39.078"/><use xlink:href="#17" y="41.249"/><use xlink:href="#18" y="43.42"/><use xlink:href="#19" y="45.591"/><use xlink:href="#20" y="49.933"/><use xlink:href="#21" y="52.104"/><text y="55.945" class="f">[1]</text><text x="4.008" y="55.945" class="f">pry(#&lt;CitiesTestHelper&gt;)&gt;</text></svg><svg x="900"><use xlink:href="#a"/><use xlink:href="#b" x="30.996" y="54.25"/><use xlink:href="#1" y="2.171"/><use xlink:href="#2" y="4.342"/><use xlink:href="#3" y="6.513"/><use xlink:href="#4" y="8.684"/><use xlink:href="#5" y="10.855"/><use xlink:href="#6" y="13.026"/><use xlink:href="#7" y="15.197"/><use xlink:href="#8" y="19.539"/><use xlink:href="#9" y="23.881"/><use xlink:href="#10" y="26.052"/><use xlink:href="#11" y="28.223"/><use xlink:href="#12" y="30.394"/><use xlink:href="#13" y="32.565"/><use xlink:href="#14" y="34.736"/><use xlink:href="#15" y="36.907"/><use xlink:href="#16" y="39.078"/><use xlink:href="#17" y="41.249"/><use xlink:href="#18" y="43.42"/><use xlink:href="#19" y="45.591"/><use xlink:href="#20" y="49.933"/><use xlink:href="#21" y="52.104"/><text y="55.945" class="f">[1]</text><text x="4.008" y="55.945" class="f">pry(#&lt;CitiesTestHelper&gt;)&gt;</text><text x="30.06" y="55.945" class="f">n</text></svg><svg x="1000"><use xlink:href="#a"/><use xlink:href="#b" x="31.996" y="54.25"/><use xlink:href="#1" y="2.171"/><use xlink:href="#2" y="4.342"/><use xlink:href="#3" y="6.513"/><use xlink:href="#4" y="8.684"/><use xlink:href="#5" y="10.855"/><use xlink:href="#6" y="13.026"/><use xlink:href="#7" y="15.197"/><use xlink:href="#8" y="19.539"/><use xlink:href="#9" y="23.881"/><use xlink:href="#10" y="26.052"/><use xlink:href="#11" y="28.223"/><use xlink:href="#12" y="30.394"/><use xlink:href="#13" y="32.565"/><use xlink:href="#14" y="34.736"/><use xlink:href="#15" y="36.907"/><use xlink:href="#16" y="39.078"/><use xlink:href="#17" y="41.249"/><use xlink:href="#18" y="43.42"/><use xlink:href="#19" y="45.591"/><use xlink:href="#20" y="49.933"/><use xlink:href="#21" y="52.104"/><text y="55.945" class="f">[1]</text><text x="4.008" y="55.945" class="f">pry(#&lt;CitiesTestHelper&gt;)&gt;</text><text x="30.06" y="55.945" class="f">na</text></svg><svg x="1100"><use xlink:href="#a"/><use xlink:href="#b" x="32.996" y="54.25"/><use xlink:href="#1" y="2.171"/><use xlink:href="#2" y="4.342"/><use xlink:href="#3" y="6.513"/><use xlink:href="#4" y="8.684"/><use xlink:href="#5" y="10.855"/><use xlink:href="#6" y="13.026"/><use xlink:href="#7" y="15.197"/><use xlink:href="#8" y="19.539"/><use xlink:href="#9" y="23.881"/><use xlink:href="#10" y="26.052"/><use xlink:href="#11" y="28.223"/><use xlink:href="#12" y="30.394"/><use xlink:href="#13" y="32.565"/><use xlink:href="#14" y="34.736"/><use xlink:href="#15" y="36.907"/><use xlink:href="#16" y="39.078"/><use xlink:href="#17" y="41.249"/><use xlink:href="#18" y="43.42"/><use xlink:href="#19" y="45.591"/><use xlink:href="#20" y="49.933"/><use xlink:href="#21" y="52.104"/><text y="55.945" class="f">[1]</text><text x="4.008" y="55.945" class="f">pry(#&lt;CitiesTestHelper&gt;)&gt;</text><text x="30.06" y="55.945" class="f">nam</text></svg><svg x="1200"><use xlink:href="#a"/><use xlink:href="#b" x="33.996" y="54.25"/><use xlink:href="#1" y="2.171"/><use xlink:href="#2" y="4.342"/><use xlink:href="#3" y="6.513"/><use xlink:href="#4" y="8.684"/><use xlink:href="#5" y="10.855"/><use xlink:href="#6" y="13.026"/><use xlink:href="#7" y="15.197"/><use xlink:href="#8" y="19.539"/><use xlink:href="#9" y="23.881"/><use xlink:href="#10" y="26.052"/><use xlink:href="#11" y="28.223"/><use xlink:href="#12" y="30.394"/><use xlink:href="#13" y="32.565"/><use xlink:href="#14" y="34.736"/><use xlink:href="#15" y="36.907"/><use xlink:href="#16" y="39.078"/><use xlink:href="#17" y="41.249"/><use xlink:href="#18" y="43.42"/><use xlink:href="#19" y="45.591"/><use xlink:href="#20" y="49.933"/><use xlink:href="#21" y="52.104"/><use xlink:href="#22" y="54.275"/></svg><svg x="1300"><use xlink:href="#a"/><use xlink:href="#b" x="-.004" y="56.421"/><use xlink:href="#1" y="2.171"/><use xlink:href="#2" y="4.342"/><use xlink:href="#3" y="6.513"/><use xlink:href="#4" y="8.684"/><use xlink:href="#5" y="10.855"/><use xlink:href="#6" y="13.026"/><use xlink:href="#7" y="15.197"/><use xlink:href="#8" y="19.539"/><use xlink:href="#9" y="23.881"/><use xlink:href="#10" y="26.052"/><use xlink:href="#11" y="28.223"/><use xlink:href="#12" y="30.394"/><use xlink:href="#13" y="32.565"/><use xlink:href="#14" y="34.736"/><use xlink:href="#15" y="36.907"/><use xlink:href="#16" y="39.078"/><use xlink:href="#17" y="41.249"/><use xlink:href="#18" y="43.42"/><use xlink:href="#19" y="45.591"/><use xlink:href="#20" y="49.933"/><use xlink:href="#21" y="52.104"/><use xlink:href="#22" y="54.275"/></svg><svg x="1400"><use xlink:href="#a"/><use xlink:href="#b" x="-.004" y="56.421"/><use xlink:href="#1" y="2.171"/><use xlink:href="#2" y="4.342"/><use xlink:href="#3" y="6.513"/><use xlink:href="#4" y="8.684"/><use xlink:href="#5" y="10.855"/><use xlink:href="#6" y="13.026"/><use xlink:href="#7" y="15.197"/><use xlink:href="#8" y="19.539"/><use xlink:href="#9" y="23.881"/><use xlink:href="#10" y="26.052"/><use xlink:href="#11" y="28.223"/><use xlink:href="#12" y="30.394"/><use xlink:href="#13" y="32.565"/><use xlink:href="#14" y="34.736"/><use xlink:href="#15" y="36.907"/><use xlink:href="#16" y="39.078"/><use xlink:href="#17" y="41.249"/><use xlink:href="#18" y="43.42"/><use xlink:href="#19" y="45.591"/><use xlink:href="#20" y="49.933"/><use xlink:href="#21" y="52.104"/><use xlink:href="#22" y="54.275"/></svg><svg x="1500"><use xlink:href="#a"/><use xlink:href="#b" x="-.004" y="58.592"/><use xlink:href="#1" y="2.171"/><use xlink:href="#2" y="4.342"/><use xlink:href="#3" y="6.513"/><use xlink:href="#4" y="8.684"/><use xlink:href="#5" y="10.855"/><use xlink:href="#6" y="13.026"/><use xlink:href="#7" y="15.197"/><use xlink:href="#8" y="19.539"/><use xlink:href="#9" y="23.881"/><use xlink:href="#10" y="26.052"/><use xlink:href="#11" y="28.223"/><use xlink:href="#12" y="30.394"/><use xlink:href="#13" y="32.565"/><use xlink:href="#14" y="34.736"/><use xlink:href="#15" y="36.907"/><use xlink:href="#16" y="39.078"/><use xlink:href="#17" y="41.249"/><use xlink:href="#18" y="43.42"/><use xlink:href="#19" y="45.591"/><use xlink:href="#20" y="49.933"/><use xlink:href="#21" y="52.104"/><use xlink:href="#22" y="54.275"/><use xlink:href="#23" y="56.446"/></svg><svg x="1600"><use xlink:href="#a"/><use xlink:href="#b" x="29.996" y="58.592"/><use xlink:href="#1" y="2.171"/><use xlink:href="#2" y="4.342"/><use xlink:href="#3" y="6.513"/><use xlink:href="#4" y="8.684"/><use xlink:href="#5" y="10.855"/><use xlink:href="#6" y="13.026"/><use xlink:href="#7" y="15.197"/><use xlink:href="#8" y="19.539"/><use xlink:href="#9" y="23.881"/><use xlink:href="#10" y="26.052"/><use xlink:href="#11" y="28.223"/><use xlink:href="#12" y="30.394"/><use xlink:href="#13" y="32.565"/><use xlink:href="#14" y="34.736"/><use xlink:href="#15" y="36.907"/><use xlink:href="#16" y="39.078"/><use xlink:href="#17" y="41.249"/><use xlink:href="#18" y="43.42"/><use xlink:href="#19" y="45.591"/><use xlink:href="#20" y="49.933"/><use xlink:href="#21" y="52.104"/><use xlink:href="#22" y="54.275"/><use xlink:href="#23" y="56.446"/><text y="60.287" class="f">[2]</text><text x="4.008" y="60.287" class="f">pry(#&lt;CitiesTestHelper&gt;)&gt;</text></svg><svg x="1700"><use xlink:href="#a"/><use xlink:href="#b" x="30.996" y="58.592"/><use xlink:href="#1" y="2.171"/><use xlink:href="#2" y="4.342"/><use xlink:href="#3" y="6.513"/><use xlink:href="#4" y="8.684"/><use xlink:href="#5" y="10.855"/><use xlink:href="#6" y="13.026"/><use xlink:href="#7" y="15.197"/><use xlink:href="#8" y="19.539"/><use xlink:href="#9" y="23.881"/><use xlink:href="#10" y="26.052"/><use xlink:href="#11" y="28.223"/><use xlink:href="#12" y="30.394"/><use xlink:href="#13" y="32.565"/><use xlink:href="#14" y="34.736"/><use xlink:href="#15" y="36.907"/><use xlink:href="#16" y="39.078"/><use xlink:href="#17" y="41.249"/><use xlink:href="#18" y="43.42"/><use xlink:href="#19" y="45.591"/><use xlink:href="#20" y="49.933"/><use xlink:href="#21" y="52.104"/><use xlink:href="#22" y="54.275"/><use xlink:href="#23" y="56.446"/><text y="60.287" class="f">[2]</text><text x="4.008" y="60.287" class="f">pry(#&lt;CitiesTestHelper&gt;)&gt;</text><text x="30.06" y="60.287" class="f">t</text></svg><svg x="1800"><use xlink:href="#a"/><use xlink:href="#b" x="31.996" y="58.592"/><use xlink:href="#1" y="2.171"/><use xlink:href="#2" y="4.342"/><use xlink:href="#3" y="6.513"/><use xlink:href="#4" y="8.684"/><use xlink:href="#5" y="10.855"/><use xlink:href="#6" y="13.026"/><use xlink:href="#7" y="15.197"/><use xlink:href="#8" y="19.539"/><use xlink:href="#9" y="23.881"/><use xlink:href="#10" y="26.052"/><use xlink:href="#11" y="28.223"/><use xlink:href="#12" y="30.394"/><use xlink:href="#13" y="32.565"/><use xlink:href="#14" y="34.736"/><use xlink:href="#15" y="36.907"/><use xlink:href="#16" y="39.078"/><use xlink:href="#17" y="41.249"/><use xlink:href="#18" y="43.42"/><use xlink:href="#19" y="45.591"/><use xlink:href="#20" y="49.933"/><use xlink:href="#21" y="52.104"/><use xlink:href="#22" y="54.275"/><use xlink:href="#23" y="56.446"/><text y="60.287" class="f">[2]</text><text x="4.008" y="60.287" class="f">pry(#&lt;CitiesTestHelper&gt;)&gt;</text><text x="30.06" y="60.287" class="f">te</text></svg><svg x="1900"><use xlink:href="#a"/><use xlink:href="#b" x="32.996" y="58.592"/><use xlink:href="#1" y="2.171"/><use xlink:href="#2" y="4.342"/><use xlink:href="#3" y="6.513"/><use xlink:href="#4" y="8.684"/><use xlink:href="#5" y="10.855"/><use xlink:href="#6" y="13.026"/><use xlink:href="#7" y="15.197"/><use xlink:href="#8" y="19.539"/><use xlink:href="#9" y="23.881"/><use xlink:href="#10" y="26.052"/><use xlink:href="#11" y="28.223"/><use xlink:href="#12" y="30.394"/><use xlink:href="#13" y="32.565"/><use xlink:href="#14" y="34.736"/><use xlink:href="#15" y="36.907"/><use xlink:href="#16" y="39.078"/><use xlink:href="#17" y="41.249"/><use xlink:href="#18" y="43.42"/><use xlink:href="#19" y="45.591"/><use xlink:href="#20" y="49.933"/><use xlink:href="#21" y="52.104"/><use xlink:href="#22" y="54.275"/><use xlink:href="#23" y="56.446"/><text y="60.287" class="f">[2]</text><text x="4.008" y="60.287" class="f">pry(#&lt;CitiesTestHelper&gt;)&gt;</text><text x="30.06" y="60.287" class="f">tex</text></svg><svg x="2000"><use xlink:href="#a"/><use xlink:href="#b" x="33.996" y="58.592"/><use xlink:href="#1" y="2.171"/><use xlink:href="#2" y="4.342"/><use xlink:href="#3" y="6.513"/><use xlink:href="#4" y="8.684"/><use xlink:href="#5" y="10.855"/><use xlink:href="#6" y="13.026"/><use xlink:href="#7" y="15.197"/><use xlink:href="#8" y="19.539"/><use xlink:href="#9" y="23.881"/><use xlink:href="#10" y="26.052"/><use xlink:href="#11" y="28.223"/><use xlink:href="#12" y="30.394"/><use xlink:href="#13" y="32.565"/><use xlink:href="#14" y="34.736"/><use xlink:href="#15" y="36.907"/><use xlink:href="#16" y="39.078"/><use xlink:href="#17" y="41.249"/><use xlink:href="#18" y="43.42"/><use xlink:href="#19" y="45.591"/><use xlink:href="#20" y="49.933"/><use xlink:href="#21" y="52.104"/><use xlink:href="#22" y="54.275"/><use xlink:href="#23" y="56.446"/><use xlink:href="#24" y="58.617"/></svg><svg x="2100"><use xlink:href="#a"/><use xlink:href="#b" x="-.004" y="60.763"/><use xlink:href="#1" y="2.171"/><use xlink:href="#2" y="4.342"/><use xlink:href="#3" y="6.513"/><use xlink:href="#4" y="8.684"/><use xlink:href="#5" y="10.855"/><use xlink:href="#6" y="13.026"/><use xlink:href="#7" y="15.197"/><use xlink:href="#8" y="19.539"/><use xlink:href="#9" y="23.881"/><use xlink:href="#10" y="26.052"/><use xlink:href="#11" y="28.223"/><use xlink:href="#12" y="30.394"/><use xlink:href="#13" y="32.565"/><use xlink:href="#14" y="34.736"/><use xlink:href="#15" y="36.907"/><use xlink:href="#16" y="39.078"/><use xlink:href="#17" y="41.249"/><use xlink:href="#18" y="43.42"/><use xlink:href="#19" y="45.591"/><use xlink:href="#20" y="49.933"/><use xlink:href="#21" y="52.104"/><use xlink:href="#22" y="54.275"/><use xlink:href="#23" y="56.446"/><use xlink:href="#24" y="58.617"/></svg><svg x="2200"><use xlink:href="#a"/><use xlink:href="#b" x="-.004" y="60.763"/><use xlink:href="#1" y="2.171"/><use xlink:href="#2" y="4.342"/><use xlink:href="#3" y="6.513"/><use xlink:href="#4" y="8.684"/><use xlink:href="#5" y="10.855"/><use xlink:href="#6" y="13.026"/><use xlink:href="#7" y="15.197"/><use xlink:href="#8" y="19.539"/><use xlink:href="#9" y="23.881"/><use xlink:href="#10" y="26.052"/><use xlink:href="#11" y="28.223"/><use xlink:href="#12" y="30.394"/><use xlink:href="#13" y="32.565"/><use xlink:href="#14" y="34.736"/><use xlink:href="#15" y="36.907"/><use xlink:href="#16" y="39.078"/><use xlink:href="#17" y="41.249"/><use xlink:href="#18" y="43.42"/><use xlink:href="#19" y="45.591"/><use xlink:href="#20" y="49.933"/><use xlink:href="#21" y="52.104"/><use xlink:href="#22" y="54.275"/><use xlink:href="#23" y="56.446"/><use xlink:href="#24" y="58.617"/></svg><svg x="2300"><use xlink:href="#a"/><use xlink:href="#b" x="-.004" y="62.934"/><use xlink:href="#1" y="2.171"/><use xlink:href="#2" y="4.342"/><use xlink:href="#3" y="6.513"/><use xlink:href="#4" y="8.684"/><use xlink:href="#5" y="10.855"/><use xlink:href="#6" y="13.026"/><use xlink:href="#7" y="15.197"/><use xlink:href="#8" y="19.539"/><use xlink:href="#9" y="23.881"/><use xlink:href="#10" y="26.052"/><use xlink:href="#11" y="28.223"/><use xlink:href="#12" y="30.394"/><use xlink:href="#13" y="32.565"/><use xlink:href="#14" y="34.736"/><use xlink:href="#15" y="36.907"/><use xlink:href="#16" y="39.078"/><use xlink:href="#17" y="41.249"/><use xlink:href="#18" y="43.42"/><use xlink:href="#19" y="45.591"/><use xlink:href="#20" y="49.933"/><use xlink:href="#21" y="52.104"/><use xlink:href="#22" y="54.275"/><use xlink:href="#23" y="56.446"/><use xlink:href="#24" y="58.617"/><use xlink:href="#25" y="60.788"/></svg><svg x="2400"><use xlink:href="#a"/><use xlink:href="#b" x="-.004" y="62.934"/><use xlink:href="#1"/><use xlink:href="#2" y="2.171"/><use xlink:href="#3" y="4.342"/><use xlink:href="#4" y="6.513"/><use xlink:href="#5" y="8.684"/><use xlink:href="#6" y="10.855"/><use xlink:href="#7" y="13.026"/><use xlink:href="#8" y="17.368"/><use xlink:href="#9" y="21.71"/><use xlink:href="#10" y="23.881"/><use xlink:href="#11" y="26.052"/><use xlink:href="#12" y="28.223"/><use xlink:href="#13" y="30.394"/><use xlink:href="#14" y="32.565"/><use xlink:href="#15" y="34.736"/><use xlink:href="#16" y="36.907"/><use xlink:href="#17" y="39.078"/><use xlink:href="#18" y="41.249"/><use xlink:href="#19" y="43.42"/><use xlink:href="#20" y="47.762"/><use xlink:href="#21" y="49.933"/><use xlink:href="#22" y="52.104"/><use xlink:href="#23" y="54.275"/><use xlink:href="#24" y="56.446"/><use xlink:href="#25" y="58.617"/><text y="62.458" class="f">exit</text></svg></svg></g></g></svg></svg>